<mxfile host="Electron" agent="Mozilla/5.0 (Windows NT 10.0; Win64; x64) AppleWebKit/537.36 (KHTML, like Gecko) draw.io/26.1.1 Chrome/132.0.6834.210 Electron/34.3.3 Safari/537.36" version="26.1.1">
  <diagram name="Page-1" id="QlGo6F7g1VgJL9JpE5FB">
    <mxGraphModel dx="1985" dy="968" grid="1" gridSize="10" guides="1" tooltips="1" connect="1" arrows="1" fold="1" page="1" pageScale="1" pageWidth="850" pageHeight="1100" math="0" shadow="0">
      <root>
        <mxCell id="0" />
        <mxCell id="1" parent="0" />
        <mxCell id="EYdXYcbk1VlgkN9zVgny-2" value="" style="rounded=0;whiteSpace=wrap;html=1;strokeColor=none;" vertex="1" parent="1">
          <mxGeometry x="30" y="10" width="1550" height="750" as="geometry" />
        </mxCell>
        <mxCell id="Belp7KSCJHB1VM08Ku4f-44" style="edgeStyle=orthogonalEdgeStyle;rounded=0;orthogonalLoop=1;jettySize=auto;html=1;entryX=0;entryY=0.5;entryDx=0;entryDy=0;" parent="1" source="Belp7KSCJHB1VM08Ku4f-1" target="Belp7KSCJHB1VM08Ku4f-2" edge="1">
          <mxGeometry relative="1" as="geometry">
            <Array as="points">
              <mxPoint x="180" y="63" />
              <mxPoint x="180" y="63" />
            </Array>
          </mxGeometry>
        </mxCell>
        <mxCell id="Belp7KSCJHB1VM08Ku4f-1" value="&lt;div style=&quot;text-align: left;&quot;&gt;&lt;span style=&quot;background-color: initial;&quot;&gt;Initialization&lt;/span&gt;&lt;/div&gt;&lt;div style=&quot;text-align: left;&quot;&gt;&lt;ul&gt;&lt;li&gt;&lt;span style=&quot;background-color: initial;&quot;&gt;Initialize Ports for Parallax Membrane Keypad&lt;/span&gt;&lt;/li&gt;&lt;li&gt;&lt;span style=&quot;background-color: initial;&quot;&gt;Initialize Ports for RGB LED&lt;/span&gt;&lt;/li&gt;&lt;li&gt;&lt;span style=&quot;background-color: initial;&quot;&gt;Initialize Ports for I2C&lt;/span&gt;&lt;/li&gt;&lt;/ul&gt;&lt;/div&gt;" style="shape=document;whiteSpace=wrap;html=1;boundedLbl=1;size=0.10526315789473684;" parent="1" vertex="1">
          <mxGeometry x="40" y="23" width="120" height="190" as="geometry" />
        </mxCell>
        <mxCell id="Belp7KSCJHB1VM08Ku4f-6" style="edgeStyle=orthogonalEdgeStyle;rounded=0;orthogonalLoop=1;jettySize=auto;html=1;entryX=0.5;entryY=0;entryDx=0;entryDy=0;" parent="1" source="Belp7KSCJHB1VM08Ku4f-2" target="Belp7KSCJHB1VM08Ku4f-3" edge="1">
          <mxGeometry relative="1" as="geometry" />
        </mxCell>
        <mxCell id="Belp7KSCJHB1VM08Ku4f-2" value="Master Main" style="ellipse;whiteSpace=wrap;html=1;" parent="1" vertex="1">
          <mxGeometry x="230" y="43" width="120" height="40" as="geometry" />
        </mxCell>
        <mxCell id="Belp7KSCJHB1VM08Ku4f-7" style="edgeStyle=orthogonalEdgeStyle;rounded=0;orthogonalLoop=1;jettySize=auto;html=1;" parent="1" source="Belp7KSCJHB1VM08Ku4f-3" target="Belp7KSCJHB1VM08Ku4f-4" edge="1">
          <mxGeometry relative="1" as="geometry" />
        </mxCell>
        <mxCell id="Belp7KSCJHB1VM08Ku4f-3" value="Poll Keypad" style="rounded=0;whiteSpace=wrap;html=1;" parent="1" vertex="1">
          <mxGeometry x="235" y="106" width="110" height="30" as="geometry" />
        </mxCell>
        <mxCell id="Belp7KSCJHB1VM08Ku4f-8" value="No" style="edgeStyle=orthogonalEdgeStyle;rounded=0;orthogonalLoop=1;jettySize=auto;html=1;exitX=0;exitY=0.5;exitDx=0;exitDy=0;" parent="1" source="Belp7KSCJHB1VM08Ku4f-4" edge="1">
          <mxGeometry relative="1" as="geometry">
            <mxPoint x="290" y="93" as="targetPoint" />
            <Array as="points">
              <mxPoint x="215" y="193" />
              <mxPoint x="215" y="93" />
            </Array>
          </mxGeometry>
        </mxCell>
        <mxCell id="Belp7KSCJHB1VM08Ku4f-14" style="edgeStyle=orthogonalEdgeStyle;rounded=0;orthogonalLoop=1;jettySize=auto;html=1;entryX=0.5;entryY=0;entryDx=0;entryDy=0;" parent="1" source="Belp7KSCJHB1VM08Ku4f-4" target="Belp7KSCJHB1VM08Ku4f-9" edge="1">
          <mxGeometry relative="1" as="geometry" />
        </mxCell>
        <mxCell id="Belp7KSCJHB1VM08Ku4f-4" value="Key press?" style="rhombus;whiteSpace=wrap;html=1;" parent="1" vertex="1">
          <mxGeometry x="235" y="153" width="110" height="80" as="geometry" />
        </mxCell>
        <mxCell id="Belp7KSCJHB1VM08Ku4f-15" value="" style="edgeStyle=orthogonalEdgeStyle;rounded=0;orthogonalLoop=1;jettySize=auto;html=1;" parent="1" source="Belp7KSCJHB1VM08Ku4f-9" target="Belp7KSCJHB1VM08Ku4f-10" edge="1">
          <mxGeometry relative="1" as="geometry" />
        </mxCell>
        <mxCell id="Belp7KSCJHB1VM08Ku4f-9" value="Set system" style="rounded=0;whiteSpace=wrap;html=1;" parent="1" vertex="1">
          <mxGeometry x="230" y="253" width="120" height="40" as="geometry" />
        </mxCell>
        <mxCell id="Belp7KSCJHB1VM08Ku4f-16" value="" style="edgeStyle=orthogonalEdgeStyle;rounded=0;orthogonalLoop=1;jettySize=auto;html=1;" parent="1" source="Belp7KSCJHB1VM08Ku4f-10" target="Belp7KSCJHB1VM08Ku4f-11" edge="1">
          <mxGeometry relative="1" as="geometry" />
        </mxCell>
        <mxCell id="Belp7KSCJHB1VM08Ku4f-38" style="edgeStyle=orthogonalEdgeStyle;rounded=0;orthogonalLoop=1;jettySize=auto;html=1;entryX=0.5;entryY=0;entryDx=0;entryDy=0;" parent="1" source="Belp7KSCJHB1VM08Ku4f-10" target="Belp7KSCJHB1VM08Ku4f-21" edge="1">
          <mxGeometry relative="1" as="geometry" />
        </mxCell>
        <mxCell id="Belp7KSCJHB1VM08Ku4f-10" value="Case &#39;0&#39;" style="rhombus;whiteSpace=wrap;html=1;" parent="1" vertex="1">
          <mxGeometry x="240" y="323" width="100" height="60" as="geometry" />
        </mxCell>
        <mxCell id="Belp7KSCJHB1VM08Ku4f-34" style="edgeStyle=orthogonalEdgeStyle;rounded=0;orthogonalLoop=1;jettySize=auto;html=1;entryX=0.5;entryY=0;entryDx=0;entryDy=0;" parent="1" source="Belp7KSCJHB1VM08Ku4f-11" edge="1">
          <mxGeometry relative="1" as="geometry">
            <mxPoint x="570" y="703" as="targetPoint" />
            <Array as="points">
              <mxPoint x="570" y="353" />
            </Array>
          </mxGeometry>
        </mxCell>
        <mxCell id="Belp7KSCJHB1VM08Ku4f-11" value="Level 0 sensitivity&lt;br&gt;(off)" style="rounded=0;whiteSpace=wrap;html=1;" parent="1" vertex="1">
          <mxGeometry x="390" y="333" width="120" height="40" as="geometry" />
        </mxCell>
        <mxCell id="Belp7KSCJHB1VM08Ku4f-20" value="" style="edgeStyle=orthogonalEdgeStyle;rounded=0;orthogonalLoop=1;jettySize=auto;html=1;" parent="1" source="Belp7KSCJHB1VM08Ku4f-21" target="Belp7KSCJHB1VM08Ku4f-22" edge="1">
          <mxGeometry relative="1" as="geometry" />
        </mxCell>
        <mxCell id="Belp7KSCJHB1VM08Ku4f-40" style="edgeStyle=orthogonalEdgeStyle;rounded=0;orthogonalLoop=1;jettySize=auto;html=1;entryX=0.5;entryY=0;entryDx=0;entryDy=0;" parent="1" source="Belp7KSCJHB1VM08Ku4f-21" target="Belp7KSCJHB1VM08Ku4f-24" edge="1">
          <mxGeometry relative="1" as="geometry" />
        </mxCell>
        <mxCell id="Belp7KSCJHB1VM08Ku4f-21" value="Case &#39;1&#39;" style="rhombus;whiteSpace=wrap;html=1;" parent="1" vertex="1">
          <mxGeometry x="240" y="403" width="100" height="60" as="geometry" />
        </mxCell>
        <mxCell id="Belp7KSCJHB1VM08Ku4f-35" style="edgeStyle=orthogonalEdgeStyle;rounded=0;orthogonalLoop=1;jettySize=auto;html=1;" parent="1" source="Belp7KSCJHB1VM08Ku4f-22" edge="1">
          <mxGeometry relative="1" as="geometry">
            <mxPoint x="570" y="433" as="targetPoint" />
          </mxGeometry>
        </mxCell>
        <mxCell id="Belp7KSCJHB1VM08Ku4f-22" value="Level 1 sensitivity" style="rounded=0;whiteSpace=wrap;html=1;" parent="1" vertex="1">
          <mxGeometry x="390" y="413" width="120" height="40" as="geometry" />
        </mxCell>
        <mxCell id="Belp7KSCJHB1VM08Ku4f-23" value="" style="edgeStyle=orthogonalEdgeStyle;rounded=0;orthogonalLoop=1;jettySize=auto;html=1;" parent="1" source="Belp7KSCJHB1VM08Ku4f-24" target="Belp7KSCJHB1VM08Ku4f-25" edge="1">
          <mxGeometry relative="1" as="geometry" />
        </mxCell>
        <mxCell id="Belp7KSCJHB1VM08Ku4f-41" style="edgeStyle=orthogonalEdgeStyle;rounded=0;orthogonalLoop=1;jettySize=auto;html=1;entryX=0.5;entryY=0;entryDx=0;entryDy=0;" parent="1" source="Belp7KSCJHB1VM08Ku4f-24" target="Belp7KSCJHB1VM08Ku4f-27" edge="1">
          <mxGeometry relative="1" as="geometry" />
        </mxCell>
        <mxCell id="Belp7KSCJHB1VM08Ku4f-24" value="Case &#39;2&#39;" style="rhombus;whiteSpace=wrap;html=1;" parent="1" vertex="1">
          <mxGeometry x="240" y="483" width="100" height="60" as="geometry" />
        </mxCell>
        <mxCell id="Belp7KSCJHB1VM08Ku4f-36" style="edgeStyle=orthogonalEdgeStyle;rounded=0;orthogonalLoop=1;jettySize=auto;html=1;" parent="1" source="Belp7KSCJHB1VM08Ku4f-25" edge="1">
          <mxGeometry relative="1" as="geometry">
            <mxPoint x="570" y="513" as="targetPoint" />
          </mxGeometry>
        </mxCell>
        <mxCell id="Belp7KSCJHB1VM08Ku4f-25" value="Level 2 sensitivity" style="rounded=0;whiteSpace=wrap;html=1;" parent="1" vertex="1">
          <mxGeometry x="390" y="493" width="120" height="40" as="geometry" />
        </mxCell>
        <mxCell id="Belp7KSCJHB1VM08Ku4f-26" value="" style="edgeStyle=orthogonalEdgeStyle;rounded=0;orthogonalLoop=1;jettySize=auto;html=1;" parent="1" source="Belp7KSCJHB1VM08Ku4f-27" target="Belp7KSCJHB1VM08Ku4f-28" edge="1">
          <mxGeometry relative="1" as="geometry" />
        </mxCell>
        <mxCell id="Belp7KSCJHB1VM08Ku4f-42" style="edgeStyle=orthogonalEdgeStyle;rounded=0;orthogonalLoop=1;jettySize=auto;html=1;entryX=0.5;entryY=0;entryDx=0;entryDy=0;" parent="1" source="Belp7KSCJHB1VM08Ku4f-27" target="Belp7KSCJHB1VM08Ku4f-30" edge="1">
          <mxGeometry relative="1" as="geometry" />
        </mxCell>
        <mxCell id="Belp7KSCJHB1VM08Ku4f-27" value="Case &#39;A&#39;" style="rhombus;whiteSpace=wrap;html=1;" parent="1" vertex="1">
          <mxGeometry x="240" y="563" width="100" height="60" as="geometry" />
        </mxCell>
        <mxCell id="Belp7KSCJHB1VM08Ku4f-37" style="edgeStyle=orthogonalEdgeStyle;rounded=0;orthogonalLoop=1;jettySize=auto;html=1;" parent="1" source="Belp7KSCJHB1VM08Ku4f-28" edge="1">
          <mxGeometry relative="1" as="geometry">
            <mxPoint x="570" y="593" as="targetPoint" />
          </mxGeometry>
        </mxCell>
        <mxCell id="Belp7KSCJHB1VM08Ku4f-28" value="Turn system on for 10 seconds" style="rounded=0;whiteSpace=wrap;html=1;" parent="1" vertex="1">
          <mxGeometry x="390" y="573" width="120" height="40" as="geometry" />
        </mxCell>
        <mxCell id="Belp7KSCJHB1VM08Ku4f-43" style="edgeStyle=orthogonalEdgeStyle;rounded=0;orthogonalLoop=1;jettySize=auto;html=1;" parent="1" source="Belp7KSCJHB1VM08Ku4f-30" edge="1">
          <mxGeometry relative="1" as="geometry">
            <mxPoint x="570" y="673" as="targetPoint" />
          </mxGeometry>
        </mxCell>
        <mxCell id="Belp7KSCJHB1VM08Ku4f-30" value="Default" style="rhombus;whiteSpace=wrap;html=1;" parent="1" vertex="1">
          <mxGeometry x="240" y="643" width="100" height="60" as="geometry" />
        </mxCell>
        <mxCell id="Belp7KSCJHB1VM08Ku4f-33" value="Return to Main" style="ellipse;whiteSpace=wrap;html=1;" parent="1" vertex="1">
          <mxGeometry x="510" y="703" width="120" height="40" as="geometry" />
        </mxCell>
        <mxCell id="Belp7KSCJHB1VM08Ku4f-76" style="edgeStyle=orthogonalEdgeStyle;rounded=0;orthogonalLoop=1;jettySize=auto;html=1;entryX=0;entryY=0.5;entryDx=0;entryDy=0;" parent="1" source="Belp7KSCJHB1VM08Ku4f-45" target="Belp7KSCJHB1VM08Ku4f-58" edge="1">
          <mxGeometry relative="1" as="geometry">
            <Array as="points">
              <mxPoint x="1030" y="80" />
              <mxPoint x="1030" y="80" />
            </Array>
          </mxGeometry>
        </mxCell>
        <mxCell id="Belp7KSCJHB1VM08Ku4f-45" value="&lt;div style=&quot;text-align: left;&quot;&gt;&lt;span style=&quot;background-color: initial;&quot;&gt;Initialization&lt;/span&gt;&lt;/div&gt;&lt;div style=&quot;text-align: left;&quot;&gt;&lt;ul&gt;&lt;li&gt;&lt;span style=&quot;background-color: initial;&quot;&gt;Initialize Ports for 3x Microphones&lt;/span&gt;&lt;/li&gt;&lt;li&gt;&lt;span style=&quot;background-color: initial;&quot;&gt;Initialize Ports for I2C&lt;/span&gt;&lt;/li&gt;&lt;/ul&gt;&lt;/div&gt;" style="shape=document;whiteSpace=wrap;html=1;boundedLbl=1;size=0.13333333333333333;" parent="1" vertex="1">
          <mxGeometry x="880" y="40" width="120" height="150" as="geometry" />
        </mxCell>
        <mxCell id="Belp7KSCJHB1VM08Ku4f-53" style="edgeStyle=orthogonalEdgeStyle;rounded=0;orthogonalLoop=1;jettySize=auto;html=1;entryX=0.5;entryY=0;entryDx=0;entryDy=0;" parent="1" source="Belp7KSCJHB1VM08Ku4f-46" target="Belp7KSCJHB1VM08Ku4f-48" edge="1">
          <mxGeometry relative="1" as="geometry" />
        </mxCell>
        <mxCell id="Belp7KSCJHB1VM08Ku4f-46" value="Master I2C ISR" style="ellipse;whiteSpace=wrap;html=1;" parent="1" vertex="1">
          <mxGeometry x="590" y="43" width="120" height="40" as="geometry" />
        </mxCell>
        <mxCell id="Belp7KSCJHB1VM08Ku4f-47" value="Return" style="ellipse;whiteSpace=wrap;html=1;" parent="1" vertex="1">
          <mxGeometry x="590" y="253" width="120" height="40" as="geometry" />
        </mxCell>
        <mxCell id="Belp7KSCJHB1VM08Ku4f-54" value="Send" style="edgeStyle=orthogonalEdgeStyle;rounded=0;orthogonalLoop=1;jettySize=auto;html=1;entryX=0.5;entryY=0;entryDx=0;entryDy=0;" parent="1" source="Belp7KSCJHB1VM08Ku4f-48" target="Belp7KSCJHB1VM08Ku4f-49" edge="1">
          <mxGeometry relative="1" as="geometry" />
        </mxCell>
        <mxCell id="Belp7KSCJHB1VM08Ku4f-55" value="Recieve" style="edgeStyle=orthogonalEdgeStyle;rounded=0;orthogonalLoop=1;jettySize=auto;html=1;entryX=0.5;entryY=0;entryDx=0;entryDy=0;" parent="1" source="Belp7KSCJHB1VM08Ku4f-48" target="Belp7KSCJHB1VM08Ku4f-52" edge="1">
          <mxGeometry relative="1" as="geometry" />
        </mxCell>
        <mxCell id="Belp7KSCJHB1VM08Ku4f-48" value="Send or Recieve?" style="rhombus;whiteSpace=wrap;html=1;" parent="1" vertex="1">
          <mxGeometry x="590" y="106" width="120" height="70" as="geometry" />
        </mxCell>
        <mxCell id="Belp7KSCJHB1VM08Ku4f-56" style="edgeStyle=orthogonalEdgeStyle;rounded=0;orthogonalLoop=1;jettySize=auto;html=1;entryX=0.5;entryY=0;entryDx=0;entryDy=0;" parent="1" source="Belp7KSCJHB1VM08Ku4f-49" target="Belp7KSCJHB1VM08Ku4f-47" edge="1">
          <mxGeometry relative="1" as="geometry" />
        </mxCell>
        <mxCell id="Belp7KSCJHB1VM08Ku4f-49" value="Send Key press" style="rounded=0;whiteSpace=wrap;html=1;" parent="1" vertex="1">
          <mxGeometry x="500" y="179" width="80" height="54" as="geometry" />
        </mxCell>
        <mxCell id="Belp7KSCJHB1VM08Ku4f-57" style="edgeStyle=orthogonalEdgeStyle;rounded=0;orthogonalLoop=1;jettySize=auto;html=1;entryX=0.5;entryY=0;entryDx=0;entryDy=0;" parent="1" source="Belp7KSCJHB1VM08Ku4f-52" target="Belp7KSCJHB1VM08Ku4f-47" edge="1">
          <mxGeometry relative="1" as="geometry" />
        </mxCell>
        <mxCell id="Belp7KSCJHB1VM08Ku4f-52" value="Recieve Direction" style="rounded=0;whiteSpace=wrap;html=1;" parent="1" vertex="1">
          <mxGeometry x="720" y="179" width="80" height="54" as="geometry" />
        </mxCell>
        <mxCell id="Belp7KSCJHB1VM08Ku4f-60" value="" style="edgeStyle=orthogonalEdgeStyle;rounded=0;orthogonalLoop=1;jettySize=auto;html=1;" parent="1" source="Belp7KSCJHB1VM08Ku4f-58" target="Belp7KSCJHB1VM08Ku4f-59" edge="1">
          <mxGeometry relative="1" as="geometry" />
        </mxCell>
        <mxCell id="Belp7KSCJHB1VM08Ku4f-58" value="Slave Mic Main" style="ellipse;whiteSpace=wrap;html=1;" parent="1" vertex="1">
          <mxGeometry x="1090" y="60" width="120" height="40" as="geometry" />
        </mxCell>
        <mxCell id="Belp7KSCJHB1VM08Ku4f-61" value="No" style="edgeStyle=orthogonalEdgeStyle;rounded=0;orthogonalLoop=1;jettySize=auto;html=1;" parent="1" source="Belp7KSCJHB1VM08Ku4f-59" edge="1">
          <mxGeometry relative="1" as="geometry">
            <mxPoint x="1150" y="110" as="targetPoint" />
            <Array as="points">
              <mxPoint x="1070" y="163" />
              <mxPoint x="1070" y="110" />
            </Array>
          </mxGeometry>
        </mxCell>
        <mxCell id="Belp7KSCJHB1VM08Ku4f-63" value="Yes" style="edgeStyle=orthogonalEdgeStyle;rounded=0;orthogonalLoop=1;jettySize=auto;html=1;" parent="1" source="Belp7KSCJHB1VM08Ku4f-59" target="Belp7KSCJHB1VM08Ku4f-62" edge="1">
          <mxGeometry relative="1" as="geometry" />
        </mxCell>
        <mxCell id="Belp7KSCJHB1VM08Ku4f-59" value="Recieving inputs?" style="rhombus;whiteSpace=wrap;html=1;" parent="1" vertex="1">
          <mxGeometry x="1095" y="123" width="110" height="80" as="geometry" />
        </mxCell>
        <mxCell id="Belp7KSCJHB1VM08Ku4f-65" value="" style="edgeStyle=orthogonalEdgeStyle;rounded=0;orthogonalLoop=1;jettySize=auto;html=1;" parent="1" source="Belp7KSCJHB1VM08Ku4f-62" target="Belp7KSCJHB1VM08Ku4f-64" edge="1">
          <mxGeometry relative="1" as="geometry" />
        </mxCell>
        <mxCell id="Belp7KSCJHB1VM08Ku4f-62" value="Triangulate Direction of Sound" style="rounded=0;whiteSpace=wrap;html=1;" parent="1" vertex="1">
          <mxGeometry x="1090" y="242" width="120" height="60" as="geometry" />
        </mxCell>
        <mxCell id="Belp7KSCJHB1VM08Ku4f-64" value="Return to Main" style="ellipse;whiteSpace=wrap;html=1;" parent="1" vertex="1">
          <mxGeometry x="1090" y="316" width="120" height="40" as="geometry" />
        </mxCell>
        <mxCell id="Belp7KSCJHB1VM08Ku4f-66" style="edgeStyle=orthogonalEdgeStyle;rounded=0;orthogonalLoop=1;jettySize=auto;html=1;entryX=0.5;entryY=0;entryDx=0;entryDy=0;" parent="1" source="Belp7KSCJHB1VM08Ku4f-67" target="Belp7KSCJHB1VM08Ku4f-71" edge="1">
          <mxGeometry relative="1" as="geometry" />
        </mxCell>
        <mxCell id="Belp7KSCJHB1VM08Ku4f-67" value="Mic I2C ISR" style="ellipse;whiteSpace=wrap;html=1;" parent="1" vertex="1">
          <mxGeometry x="1360" y="66" width="120" height="40" as="geometry" />
        </mxCell>
        <mxCell id="Belp7KSCJHB1VM08Ku4f-68" value="Return" style="ellipse;whiteSpace=wrap;html=1;" parent="1" vertex="1">
          <mxGeometry x="1360" y="276" width="120" height="40" as="geometry" />
        </mxCell>
        <mxCell id="Belp7KSCJHB1VM08Ku4f-69" value="Send" style="edgeStyle=orthogonalEdgeStyle;rounded=0;orthogonalLoop=1;jettySize=auto;html=1;entryX=0.5;entryY=0;entryDx=0;entryDy=0;" parent="1" source="Belp7KSCJHB1VM08Ku4f-71" target="Belp7KSCJHB1VM08Ku4f-73" edge="1">
          <mxGeometry relative="1" as="geometry" />
        </mxCell>
        <mxCell id="Belp7KSCJHB1VM08Ku4f-70" value="Recieve" style="edgeStyle=orthogonalEdgeStyle;rounded=0;orthogonalLoop=1;jettySize=auto;html=1;entryX=0.5;entryY=0;entryDx=0;entryDy=0;" parent="1" source="Belp7KSCJHB1VM08Ku4f-71" target="Belp7KSCJHB1VM08Ku4f-75" edge="1">
          <mxGeometry relative="1" as="geometry" />
        </mxCell>
        <mxCell id="Belp7KSCJHB1VM08Ku4f-71" value="Send or Recieve?" style="rhombus;whiteSpace=wrap;html=1;" parent="1" vertex="1">
          <mxGeometry x="1360" y="129" width="120" height="70" as="geometry" />
        </mxCell>
        <mxCell id="Belp7KSCJHB1VM08Ku4f-72" style="edgeStyle=orthogonalEdgeStyle;rounded=0;orthogonalLoop=1;jettySize=auto;html=1;entryX=0.5;entryY=0;entryDx=0;entryDy=0;" parent="1" source="Belp7KSCJHB1VM08Ku4f-73" target="Belp7KSCJHB1VM08Ku4f-68" edge="1">
          <mxGeometry relative="1" as="geometry" />
        </mxCell>
        <mxCell id="Belp7KSCJHB1VM08Ku4f-73" value="Send Direction" style="rounded=0;whiteSpace=wrap;html=1;" parent="1" vertex="1">
          <mxGeometry x="1270" y="202" width="80" height="54" as="geometry" />
        </mxCell>
        <mxCell id="Belp7KSCJHB1VM08Ku4f-74" style="edgeStyle=orthogonalEdgeStyle;rounded=0;orthogonalLoop=1;jettySize=auto;html=1;entryX=0.5;entryY=0;entryDx=0;entryDy=0;" parent="1" source="Belp7KSCJHB1VM08Ku4f-75" target="Belp7KSCJHB1VM08Ku4f-68" edge="1">
          <mxGeometry relative="1" as="geometry" />
        </mxCell>
        <mxCell id="Belp7KSCJHB1VM08Ku4f-75" value="Recieve Key Press" style="rounded=0;whiteSpace=wrap;html=1;" parent="1" vertex="1">
          <mxGeometry x="1490" y="202" width="80" height="54" as="geometry" />
        </mxCell>
        <mxCell id="Belp7KSCJHB1VM08Ku4f-77" style="edgeStyle=orthogonalEdgeStyle;rounded=0;orthogonalLoop=1;jettySize=auto;html=1;entryX=0;entryY=0.5;entryDx=0;entryDy=0;" parent="1" source="Belp7KSCJHB1VM08Ku4f-78" target="Belp7KSCJHB1VM08Ku4f-80" edge="1">
          <mxGeometry relative="1" as="geometry">
            <Array as="points">
              <mxPoint x="1030" y="443" />
              <mxPoint x="1030" y="443" />
            </Array>
          </mxGeometry>
        </mxCell>
        <mxCell id="Belp7KSCJHB1VM08Ku4f-78" value="&lt;div style=&quot;text-align: left;&quot;&gt;&lt;span style=&quot;background-color: initial;&quot;&gt;Initialization&lt;/span&gt;&lt;/div&gt;&lt;div style=&quot;text-align: left;&quot;&gt;&lt;ul&gt;&lt;li&gt;&lt;span style=&quot;background-color: initial;&quot;&gt;Initialize Ports for LCD&lt;/span&gt;&lt;/li&gt;&lt;li&gt;&lt;span style=&quot;background-color: initial;&quot;&gt;Initialize Ports for I2C&lt;/span&gt;&lt;/li&gt;&lt;/ul&gt;&lt;/div&gt;" style="shape=document;whiteSpace=wrap;html=1;boundedLbl=1;size=0.13333333333333333;" parent="1" vertex="1">
          <mxGeometry x="880" y="403" width="120" height="150" as="geometry" />
        </mxCell>
        <mxCell id="Belp7KSCJHB1VM08Ku4f-79" value="" style="edgeStyle=orthogonalEdgeStyle;rounded=0;orthogonalLoop=1;jettySize=auto;html=1;" parent="1" source="Belp7KSCJHB1VM08Ku4f-80" target="Belp7KSCJHB1VM08Ku4f-83" edge="1">
          <mxGeometry relative="1" as="geometry" />
        </mxCell>
        <mxCell id="Belp7KSCJHB1VM08Ku4f-80" value="Slave LCD Main" style="ellipse;whiteSpace=wrap;html=1;" parent="1" vertex="1">
          <mxGeometry x="1090" y="423" width="120" height="40" as="geometry" />
        </mxCell>
        <mxCell id="Belp7KSCJHB1VM08Ku4f-81" value="No" style="edgeStyle=orthogonalEdgeStyle;rounded=0;orthogonalLoop=1;jettySize=auto;html=1;" parent="1" source="Belp7KSCJHB1VM08Ku4f-83" edge="1">
          <mxGeometry relative="1" as="geometry">
            <mxPoint x="1150" y="473" as="targetPoint" />
            <Array as="points">
              <mxPoint x="1070" y="526" />
              <mxPoint x="1070" y="473" />
            </Array>
          </mxGeometry>
        </mxCell>
        <mxCell id="Belp7KSCJHB1VM08Ku4f-82" value="Yes" style="edgeStyle=orthogonalEdgeStyle;rounded=0;orthogonalLoop=1;jettySize=auto;html=1;" parent="1" source="Belp7KSCJHB1VM08Ku4f-83" target="Belp7KSCJHB1VM08Ku4f-85" edge="1">
          <mxGeometry relative="1" as="geometry" />
        </mxCell>
        <mxCell id="Belp7KSCJHB1VM08Ku4f-83" value="Recieving inputs?" style="rhombus;whiteSpace=wrap;html=1;" parent="1" vertex="1">
          <mxGeometry x="1095" y="486" width="110" height="80" as="geometry" />
        </mxCell>
        <mxCell id="Belp7KSCJHB1VM08Ku4f-84" value="" style="edgeStyle=orthogonalEdgeStyle;rounded=0;orthogonalLoop=1;jettySize=auto;html=1;" parent="1" source="Belp7KSCJHB1VM08Ku4f-85" target="Belp7KSCJHB1VM08Ku4f-86" edge="1">
          <mxGeometry relative="1" as="geometry" />
        </mxCell>
        <mxCell id="Belp7KSCJHB1VM08Ku4f-85" value="Print Direction of Sound" style="rounded=0;whiteSpace=wrap;html=1;" parent="1" vertex="1">
          <mxGeometry x="1090" y="605" width="120" height="60" as="geometry" />
        </mxCell>
        <mxCell id="Belp7KSCJHB1VM08Ku4f-86" value="Return to Main" style="ellipse;whiteSpace=wrap;html=1;" parent="1" vertex="1">
          <mxGeometry x="1090" y="679" width="120" height="40" as="geometry" />
        </mxCell>
        <mxCell id="Belp7KSCJHB1VM08Ku4f-97" value="" style="edgeStyle=orthogonalEdgeStyle;rounded=0;orthogonalLoop=1;jettySize=auto;html=1;" parent="1" source="Belp7KSCJHB1VM08Ku4f-88" target="Belp7KSCJHB1VM08Ku4f-96" edge="1">
          <mxGeometry relative="1" as="geometry" />
        </mxCell>
        <mxCell id="Belp7KSCJHB1VM08Ku4f-88" value="LCD I2C ISR" style="ellipse;whiteSpace=wrap;html=1;" parent="1" vertex="1">
          <mxGeometry x="1290" y="423" width="120" height="40" as="geometry" />
        </mxCell>
        <mxCell id="Belp7KSCJHB1VM08Ku4f-89" value="Return" style="ellipse;whiteSpace=wrap;html=1;" parent="1" vertex="1">
          <mxGeometry x="1290" y="566" width="120" height="40" as="geometry" />
        </mxCell>
        <mxCell id="Belp7KSCJHB1VM08Ku4f-95" style="edgeStyle=orthogonalEdgeStyle;rounded=0;orthogonalLoop=1;jettySize=auto;html=1;entryX=0.5;entryY=0;entryDx=0;entryDy=0;" parent="1" source="Belp7KSCJHB1VM08Ku4f-96" target="Belp7KSCJHB1VM08Ku4f-89" edge="1">
          <mxGeometry relative="1" as="geometry" />
        </mxCell>
        <mxCell id="Belp7KSCJHB1VM08Ku4f-96" value="Recieve Key Press" style="rounded=0;whiteSpace=wrap;html=1;" parent="1" vertex="1">
          <mxGeometry x="1310" y="489" width="80" height="54" as="geometry" />
        </mxCell>
      </root>
    </mxGraphModel>
  </diagram>
</mxfile>
